<svg width="358" height="51" viewBox="0 0 358 51" fill="none" xmlns="http://www.w3.org/2000/svg">
<rect width="358" height="50.152" rx="2" fill="black"/>
<path d="M168.214 22.6628H166.629C166.535 22.2069 166.371 21.8063 166.137 21.4611C165.907 21.116 165.625 20.8262 165.293 20.5918C164.965 20.3532 164.6 20.1742 164.2 20.0549C163.799 19.9356 163.382 19.8759 162.947 19.8759C162.154 19.8759 161.436 20.0762 160.793 20.4768C160.154 20.8773 159.644 21.4675 159.265 22.2474C158.89 23.0272 158.703 23.9839 158.703 25.1174C158.703 26.2509 158.89 27.2076 159.265 27.9874C159.644 28.7672 160.154 29.3574 160.793 29.758C161.436 30.1586 162.154 30.3589 162.947 30.3589C163.382 30.3589 163.799 30.2992 164.2 30.1799C164.6 30.0606 164.965 29.8837 165.293 29.6493C165.625 29.4107 165.907 29.1188 166.137 28.7736C166.371 28.4242 166.535 28.0236 166.629 27.5719H168.214C168.095 28.241 167.877 28.8397 167.562 29.3681C167.247 29.8965 166.855 30.3461 166.386 30.7168C165.917 31.0833 165.391 31.3624 164.807 31.5542C164.228 31.7459 163.608 31.8418 162.947 31.8418C161.831 31.8418 160.838 31.5691 159.968 31.0236C159.099 30.4782 158.415 29.7026 157.916 28.6969C157.418 27.6913 157.169 26.4981 157.169 25.1174C157.169 23.7367 157.418 22.5435 157.916 21.5378C158.415 20.5322 159.099 19.7566 159.968 19.2111C160.838 18.6657 161.831 18.393 162.947 18.393C163.608 18.393 164.228 18.4888 164.807 18.6806C165.391 18.8724 165.917 19.1536 166.386 19.5243C166.855 19.8908 167.247 20.3383 167.562 20.8667C167.877 21.3908 168.095 21.9895 168.214 22.6628ZM170.571 31.6628V21.8447H172.028V23.3276H172.131C172.31 22.8418 172.634 22.4476 173.102 22.1451C173.571 21.8425 174.1 21.6913 174.688 21.6913C174.798 21.6913 174.937 21.6934 175.103 21.6976C175.269 21.7019 175.395 21.7083 175.48 21.7168V23.2509C175.429 23.2381 175.312 23.2189 175.129 23.1934C174.95 23.1636 174.76 23.1486 174.56 23.1486C174.082 23.1486 173.656 23.2488 173.281 23.4491C172.911 23.6451 172.617 23.9178 172.399 24.2672C172.186 24.6124 172.08 25.0066 172.08 25.4498V31.6628H170.571ZM181.086 31.8674C180.14 31.8674 179.324 31.6586 178.638 31.241C177.956 30.8191 177.43 30.231 177.059 29.4768C176.693 28.7182 176.509 27.8361 176.509 26.8305C176.509 25.8248 176.693 24.9384 177.059 24.1714C177.43 23.4001 177.945 22.7992 178.606 22.3688C179.271 21.9341 180.046 21.7168 180.933 21.7168C181.444 21.7168 181.949 21.802 182.448 21.9725C182.946 22.143 183.4 22.4199 183.809 22.8035C184.218 23.1827 184.544 23.6856 184.787 24.312C185.03 24.9384 185.151 25.7097 185.151 26.6259V27.2651H177.583V25.9611H183.617C183.617 25.4072 183.506 24.9128 183.285 24.4782C183.068 24.0435 182.756 23.7005 182.352 23.4491C181.951 23.1976 181.478 23.0719 180.933 23.0719C180.332 23.0719 179.812 23.2211 179.373 23.5194C178.938 23.8134 178.604 24.1969 178.369 24.6699C178.135 25.143 178.018 25.6501 178.018 26.1913V27.0606C178.018 27.802 178.146 28.4306 178.401 28.9462C178.661 29.4576 179.021 29.8475 179.482 30.116C179.942 30.3802 180.477 30.5123 181.086 30.5123C181.482 30.5123 181.84 30.4569 182.16 30.3461C182.484 30.231 182.763 30.0606 182.997 29.8347C183.232 29.6046 183.413 29.3191 183.541 28.9782L184.998 29.3873C184.845 29.8816 184.587 30.3163 184.225 30.6913C183.862 31.062 183.415 31.3518 182.882 31.5606C182.35 31.7651 181.751 31.8674 181.086 31.8674ZM190.335 31.893C189.713 31.893 189.149 31.7758 188.641 31.5414C188.134 31.3028 187.732 30.9597 187.433 30.5123C187.135 30.0606 186.986 29.5151 186.986 28.8759C186.986 28.3134 187.097 27.8574 187.318 27.508C187.54 27.1543 187.836 26.8773 188.207 26.677C188.578 26.4768 188.987 26.3276 189.434 26.2296C189.886 26.1273 190.34 26.0464 190.796 25.9867C191.392 25.91 191.876 25.8525 192.247 25.8141C192.622 25.7715 192.894 25.7012 193.065 25.6032C193.239 25.5052 193.327 25.3347 193.327 25.0918V25.0407C193.327 24.41 193.154 23.9199 192.809 23.5705C192.468 23.2211 191.95 23.0464 191.256 23.0464C190.536 23.0464 189.971 23.204 189.562 23.5194C189.153 23.8347 188.865 24.1714 188.699 24.5293L187.267 24.018C187.523 23.4214 187.864 22.9569 188.29 22.6245C188.72 22.2878 189.189 22.0535 189.696 21.9214C190.207 21.785 190.71 21.7168 191.205 21.7168C191.52 21.7168 191.882 21.7552 192.291 21.8319C192.705 21.9043 193.103 22.0556 193.487 22.2857C193.874 22.5158 194.196 22.8631 194.452 23.3276C194.707 23.7921 194.835 24.4143 194.835 25.1941V31.6628H193.327V30.3333H193.25C193.148 30.5464 192.977 30.7743 192.739 31.0172C192.5 31.2601 192.183 31.4668 191.786 31.6373C191.39 31.8077 190.906 31.893 190.335 31.893ZM190.565 30.5378C191.162 30.5378 191.665 30.4207 192.074 30.1863C192.487 29.9519 192.798 29.6493 193.007 29.2786C193.22 28.9079 193.327 28.518 193.327 28.1089V26.7282C193.263 26.8049 193.122 26.8752 192.905 26.9391C192.692 26.9988 192.445 27.052 192.163 27.0989C191.886 27.1415 191.616 27.1799 191.352 27.214C191.092 27.2438 190.881 27.2694 190.719 27.2907C190.327 27.3418 189.96 27.4249 189.619 27.54C189.283 27.6508 189.01 27.8191 188.801 28.0449C188.597 28.2665 188.494 28.5691 188.494 28.9526C188.494 29.4768 188.688 29.8731 189.076 30.1415C189.468 30.4057 189.965 30.5378 190.565 30.5378ZM197.589 31.6628V21.8447H199.046V23.3276H199.148C199.327 22.8418 199.651 22.4476 200.12 22.1451C200.589 21.8425 201.117 21.6913 201.705 21.6913C201.816 21.6913 201.954 21.6934 202.121 21.6976C202.287 21.7019 202.413 21.7083 202.498 21.7168V23.2509C202.447 23.2381 202.329 23.2189 202.146 23.1934C201.967 23.1636 201.778 23.1486 201.577 23.1486C201.1 23.1486 200.674 23.2488 200.299 23.4491C199.928 23.6451 199.634 23.9178 199.417 24.2672C199.204 24.6124 199.097 25.0066 199.097 25.4498V31.6628H197.589Z" fill="white"/>
</svg>
